<svg width="19" height="22" viewBox="0 0 19 22" fill="none" xmlns="http://www.w3.org/2000/svg">
<path d="M18.8712 15.2343V15.2351C19.3842 18.1676 17.3405 20.2961 14.4927 20.7746C11.7417 21.2366 7.25899 21.2366 4.50874 20.7746C1.66024 20.2961 -0.38351 18.1676 0.13024 15.2351V15.2343C0.56524 12.7458 2.67499 11.1956 5.25049 11.3291C7.13224 11.4266 8.28799 11.6711 9.62674 11.6711C10.9805 11.6711 11.8827 11.4258 13.751 11.3291C16.3265 11.1941 18.4362 12.7458 18.8712 15.2343ZM9.15049 0.121094C11.8565 0.121094 14.0502 2.31484 14.0502 5.02084C14.0502 7.72684 11.8565 9.92059 9.15049 9.92059C6.44449 9.92059 4.24999 7.72609 4.24999 5.02084C4.24999 2.31559 6.44374 0.121094 9.15049 0.121094Z" fill="#00A6FF"/>
</svg>
